<svg width="70" height="33" viewBox="0 0 70 33" fill="none" xmlns="http://www.w3.org/2000/svg">
<path d="M42.3998 9.84899L41.1918 27.203L35.9716 26.8363L35.4603 23.8813C33.5053 25.9427 31.276 26.8855 28.7723 26.7097C27.8709 26.6464 27.0284 26.4608 26.2448 26.153C25.4861 25.847 24.9231 25.441 24.5558 24.935C24.3497 24.6425 24.2226 23.9385 24.1745 22.8231C24.1514 21.7095 24.2186 20.0208 24.3762 17.7573L25.0117 8.62757L31.4336 9.07868L30.8034 18.1329C30.7684 18.6359 30.7397 19.2279 30.7175 19.9087C30.6953 20.5895 30.7406 21.0224 30.8536 21.2072C31.0113 21.471 31.5033 21.632 32.3295 21.69L32.933 21.6945C33.6358 21.7186 34.3732 21.6061 35.1454 21.357L35.9778 9.39788L42.3998 9.84899Z" fill="white"/>
<path d="M55.8706 10.4161C57.6733 10.5428 59.0583 11.2466 60.0259 12.5277C61.0202 13.7854 61.414 15.8982 61.2074 18.866C61.0534 21.0792 60.7145 22.8751 60.1908 24.2537C59.6689 25.6071 59.1168 26.4908 58.5345 26.9048C57.9521 27.3188 56.9628 27.6158 55.5665 27.7957C54.1953 27.9774 52.7836 28.0172 51.3314 27.9152C50.9058 27.8853 50.194 27.8101 49.196 27.6894L48.8231 33.0465L42.3828 32.8595L43.9768 9.95977L49.2346 10.3291L49.6866 13.0525C50.4023 12.1676 51.2802 11.4837 52.3202 11.0008C53.3852 10.5196 54.5687 10.3247 55.8706 10.4161ZM53.4545 23.4393C53.7439 23.2574 53.9836 22.7056 54.1736 21.7838C54.3653 20.8369 54.4909 19.9359 54.5504 19.0807C54.6485 17.6723 54.5459 16.6162 54.2426 15.9125C53.9394 15.2088 53.262 14.8201 52.2104 14.7462C51.4593 14.6934 50.753 14.7196 50.0916 14.8248L49.5086 23.2L50.5522 23.3871C50.876 23.4351 51.3383 23.4802 51.9391 23.5224C52.7904 23.5822 53.2955 23.5545 53.4545 23.4393Z" fill="white"/>
<path d="M63.1179 20.1754C63.2114 18.1095 63.3268 13.9222 63.464 7.61341L63.5326 5.00239L69.6402 5.09023C69.6302 5.595 69.591 6.33782 69.5228 7.3187C69.3407 9.93438 69.0002 13.0191 68.5012 16.5729C68.289 18.1755 68.1546 19.2023 68.0981 19.6533C66.849 20.2479 65.2472 20.4892 63.2926 20.3772L63.1179 20.1754ZM64.8746 29.094C64.0484 29.036 63.3783 28.7236 62.8642 28.1567C62.377 27.5664 62.1657 26.806 62.2305 25.8755C62.2865 25.0706 62.6092 24.4109 63.1986 23.8963C63.8129 23.3834 64.5332 23.156 65.3594 23.214C66.1606 23.2703 66.8048 23.5936 67.2921 24.1838C67.8044 24.7758 68.0325 25.4743 67.9765 26.2791C67.9117 27.2097 67.5972 27.9331 67.0329 28.4495C66.4704 28.9408 65.7509 29.1556 64.8746 29.094Z" fill="white"/>
<path d="M2.31979 0.837579L9.75458 1.35983L9.15426 9.98378L8.82395 14.729L8.11735 24.8797L0.682567 24.3574L2.31979 0.837579Z" fill="white"/>
<path d="M15.5211 10.431L16.1214 1.80707L23.5562 2.32932L21.9189 25.8492L14.4842 25.3269L15.1908 15.1762L15.5211 10.431Z" fill="white"/>
</svg>
