<svg width="60" height="29" viewBox="0 0 60 29" fill="none" xmlns="http://www.w3.org/2000/svg">
<path d="M36.3427 8.442L35.3072 23.3168L30.8328 23.0025L30.3945 20.4697C28.7188 22.2366 26.808 23.0448 24.6619 22.894C23.8894 22.8397 23.1672 22.6807 22.4955 22.4169C21.8452 22.1546 21.3627 21.8066 21.0478 21.3729C20.8712 21.1221 20.7622 20.5188 20.721 19.5627C20.7012 18.6081 20.7588 17.1607 20.8938 15.2205L21.4386 7.39507L26.9431 7.78173L26.4029 15.5425C26.3729 15.9737 26.3483 16.481 26.3293 17.0646C26.3102 17.6482 26.3491 18.0192 26.4459 18.1776C26.5811 18.4037 27.0028 18.5417 27.711 18.5914L28.2283 18.5953C28.8307 18.6159 29.4628 18.5195 30.1246 18.306L30.8381 8.05534L36.3427 8.442Z" fill="white"/>
<path d="M47.8891 8.92813C49.4342 9.03666 50.6214 9.63997 51.4507 10.7381C52.303 11.8161 52.6406 13.627 52.4635 16.1708C52.3314 18.0679 52.041 19.6073 51.5921 20.7889C51.1448 21.9489 50.6715 22.7064 50.1724 23.0613C49.6733 23.4161 48.8253 23.6707 47.6285 23.8249C46.4531 23.9806 45.2431 24.0148 43.9984 23.9274C43.6336 23.9017 43.0234 23.8372 42.168 23.7338L41.8484 28.3256L36.3281 28.1653L37.6944 8.53695L42.2011 8.85352L42.5885 11.1879C43.202 10.4294 43.9544 9.84321 44.8459 9.42924C45.7587 9.01678 46.7731 8.84974 47.8891 8.92813ZM45.8181 20.0908C46.0662 19.9349 46.2716 19.462 46.4345 18.6719C46.5988 17.8602 46.7065 17.0879 46.7575 16.3549C46.8415 15.1477 46.7536 14.2425 46.4937 13.6393C46.2337 13.0362 45.6531 12.7029 44.7518 12.6396C44.108 12.5944 43.5026 12.6169 42.9356 12.707L42.4359 19.8857L43.3305 20.0461C43.608 20.0872 44.0042 20.1259 44.5193 20.1621C45.2489 20.2133 45.6819 20.1896 45.8181 20.0908Z" fill="white"/>
<path d="M54.1011 17.2932C54.1812 15.5224 54.2801 11.9333 54.3977 6.52579L54.4565 4.28778L59.6916 4.36306C59.683 4.79572 59.6495 5.43243 59.5909 6.27318C59.4349 8.51519 59.143 11.1593 58.7153 14.2054C58.5334 15.579 58.4182 16.4591 58.3698 16.8457C57.2992 17.3554 55.9262 17.5622 54.2508 17.4662L54.1011 17.2932ZM55.6068 24.9378C54.8986 24.888 54.3242 24.6202 53.8836 24.1343C53.466 23.6284 53.2849 22.9766 53.3404 22.179C53.3885 21.4891 53.665 20.9236 54.1702 20.4825C54.6968 20.0429 55.3142 19.848 56.0224 19.8978C56.7091 19.946 57.2613 20.2231 57.6789 20.729C58.118 21.2364 58.3136 21.8351 58.2656 22.5249C58.21 23.3226 57.9404 23.9427 57.4568 24.3853C56.9746 24.8064 56.3579 24.9905 55.6068 24.9378Z" fill="white"/>
<path d="M1.98838 0.717934L8.36106 1.16558L7.8465 8.55753L7.56337 12.6249L6.95772 21.3254L0.585049 20.8778L1.98838 0.717934Z" fill="white"/>
<path d="M13.3038 8.94088L13.8183 1.54892L20.191 1.99657L18.7877 22.1564L12.415 21.7088L13.0206 13.0082L13.3038 8.94088Z" fill="white"/>
</svg>
